<svg width="381" height="319" viewBox="0 0 381 319" fill="none" xmlns="http://www.w3.org/2000/svg">
<path d="M88.8695 142.34C85.8975 142.34 82.9655 142.496 80.0695 142.784C72.1415 106.648 76.4375 59.536 108.341 0C108.341 0 -10.7105 84.044 0.781498 239.576C0.949498 239.656 1.12549 239.724 1.29349 239.8C5.97749 284.04 43.3895 318.512 88.8695 318.512C137.517 318.512 176.957 279.072 176.957 230.424C176.957 181.78 137.517 142.34 88.8695 142.34Z" fill="#E84444" fill-opacity="0.533333"/>
<path d="M88.8696 302.516C43.3896 302.516 5.97358 268.044 1.29358 223.804C1.12558 223.724 0.949583 223.66 0.781583 223.58C0.46602 219.199 0.251291 214.811 0.137579 210.42C-0.149157 220.145 0.0657999 229.877 0.781583 239.58C0.949583 239.66 1.12558 239.728 1.29358 239.804C5.97758 284.044 43.3896 318.516 88.8696 318.516C137.518 318.516 176.958 279.076 176.958 230.428C176.952 227.757 176.826 225.088 176.582 222.428C172.534 267.328 134.818 302.516 88.8696 302.516Z" fill="black" fill-opacity="0.0627451"/>
<path opacity="0.2" d="M60.0699 162.784C62.9941 162.491 65.931 162.342 68.8699 162.34C117.518 162.34 176.958 181.78 176.958 230.428C176.958 181.78 137.518 142.34 88.8699 142.34C85.8979 142.34 82.9659 142.496 80.0699 142.784C72.1419 106.648 76.4379 59.536 108.342 0C76.4379 59.536 52.1419 126.648 60.0699 162.784Z" fill="white"/>
<path d="M292.87 142.34C289.898 142.34 286.966 142.496 284.07 142.784C276.142 106.648 280.438 59.536 312.341 0C312.341 0 193.289 84.044 204.781 239.576C204.949 239.656 205.126 239.724 205.294 239.8C209.978 284.04 247.39 318.512 292.87 318.512C341.518 318.512 380.958 279.072 380.958 230.424C380.958 181.78 341.518 142.34 292.87 142.34Z" fill="#E84444" fill-opacity="0.533333"/>
<path opacity="0.1" d="M292.87 302.516C247.39 302.516 209.974 268.044 205.294 223.804C205.126 223.724 204.95 223.66 204.782 223.58C204.466 219.199 204.251 214.811 204.138 210.42C203.851 220.145 204.066 229.877 204.782 239.58C204.95 239.66 205.126 239.728 205.294 239.804C209.978 284.044 247.39 318.516 292.87 318.516C341.518 318.516 380.958 279.076 380.958 230.428C380.952 227.757 380.826 225.088 380.582 222.428C376.534 267.328 338.818 302.516 292.87 302.516Z" fill="black"/>
<path opacity="0.2" d="M264.07 162.784C266.994 162.491 269.931 162.342 272.87 162.34C321.518 162.34 380.958 181.78 380.958 230.428C380.958 181.78 341.518 142.34 292.87 142.34C289.898 142.34 286.966 142.496 284.07 142.784C276.142 106.648 280.438 59.536 312.342 0C280.438 59.536 256.142 126.648 264.07 162.784Z" fill="white"/>
</svg>
